<?xml version="1.0" encoding="UTF-8" standalone="no"?>
<!-- Generator: Adobe Illustrator 19.1.0, SVG Export Plug-In . SVG Version: 6.00 Build 0)  -->

<svg
   xmlns:dc="http://purl.org/dc/elements/1.1/"
   xmlns:cc="http://creativecommons.org/ns#"
   xmlns:rdf="http://www.w3.org/1999/02/22-rdf-syntax-ns#"
   xmlns:svg="http://www.w3.org/2000/svg"
   xmlns="http://www.w3.org/2000/svg"
   xmlns:sodipodi="http://sodipodi.sourceforge.net/DTD/sodipodi-0.dtd"
   xmlns:inkscape="http://www.inkscape.org/namespaces/inkscape"
   version="1.1"
   id="bitbucket"
   x="0px"
   y="0px"
   viewBox="254 -48.7 150 150"
   xml:space="preserve"
   inkscape:version="0.91 r13725"
   sodipodi:docname="bitbucket_rgb_blue_symbol.svg"
   width="150"
   height="150"><metadata
     id="metadata47"><rdf:RDF><cc:Work
         rdf:about=""><dc:format>image/svg+xml</dc:format><dc:type
           rdf:resource="http://purl.org/dc/dcmitype/StillImage" /><dc:title></dc:title></cc:Work></rdf:RDF></metadata><defs
     id="defs45" /><sodipodi:namedview
     pagecolor="#ffffff"
     bordercolor="#666666"
     borderopacity="1"
     objecttolerance="10"
     gridtolerance="10"
     guidetolerance="10"
     inkscape:pageopacity="0"
     inkscape:pageshadow="2"
     inkscape:window-width="1920"
     inkscape:window-height="1027"
     id="namedview43"
     showgrid="false"
     fit-margin-top="0"
     fit-margin-left="0"
     fit-margin-right="0"
     fit-margin-bottom="0"
     inkscape:zoom="1.3473684"
     inkscape:cx="361.1754"
     inkscape:cy="63.771741"
     inkscape:window-x="-8"
     inkscape:window-y="22"
     inkscape:window-maximized="1"
     inkscape:current-layer="bitbucket" /><style
     type="text/css"
     id="style3">
	.st0{fill:#205081;}
</style><g
     id="g4193"
     transform="translate(-1.2,-90.550001)"><path
       class="st0"
       d="m 330.2,46.2 0,0 0,0 c -33.7,0 -61.2,9.1 -61.2,20.3 0,3 7.3,45.4 10.3,62.3 1.3,7.6 20.8,18.6 50.9,18.6 l 0,-0.1 0,0.1 c 30.1,0 49.6,-11.1 50.9,-18.6 C 384,112 391.4,69.5 391.4,66.5 391.3,55.3 363.8,46.2 330.2,46.2 Z m 0,87.6 c -10.7,0 -19.4,-8.7 -19.4,-19.4 0,-10.7 8.7,-19.4 19.4,-19.4 10.7,0 19.4,8.7 19.4,19.4 0,10.7 -8.7,19.4 -19.4,19.4 z m 0,-61 C 308.6,72.8 291,69 291,64.4 c 0,-4.6 17.6,-8.3 39.2,-8.3 21.6,0 39.2,3.8 39.2,8.4 -0.1,4.6 -17.6,8.3 -39.2,8.3 z"
       id="path37"
       inkscape:connector-curvature="0"
       style="fill:#205081" /><path
       class="st0"
       d="m 374.1,145.7 c -0.9,0 -1.7,0.7 -1.7,0.7 0,0 -15.1,11.9 -42.3,11.9 -27.2,0 -42.3,-11.9 -42.3,-11.9 0,0 -0.7,-0.7 -1.7,-0.7 -1.1,0 -2.2,0.7 -2.2,2.4 0,0.2 0,0.3 0,0.5 2.3,12.5 4,21.4 4.3,22.7 2,9.2 20,16.2 41.7,16.2 l 0,0 0,0 0,0 0,0 c 21.7,0 39.7,-6.9 41.7,-16.2 0.3,-1.4 2,-10.2 4.3,-22.7 0,-0.2 0,-0.3 0,-0.5 0.4,-1.7 -0.7,-2.4 -1.8,-2.4 z"
       id="path39"
       inkscape:connector-curvature="0"
       style="fill:#205081" /><circle
       class="st0"
       cx="330.20001"
       cy="114.3"
       r="9.6999998"
       id="circle41"
       style="fill:#205081" /></g></svg>